<?xml version="1.0" encoding="UTF-8"?>
<svg width="24px" height="24px" viewBox="0 0 24 24" version="1.1" xmlns="http://www.w3.org/2000/svg" xmlns:xlink="http://www.w3.org/1999/xlink">
    <!-- Generator: Sketch 61.1 (89650) - https://sketch.com -->
    <title>icon-wddc</title>
    <desc>Created with Sketch.</desc>
    <g id="贵阳市入境通道疫情检疫站登记" stroke="none" stroke-width="1" fill="none" fill-rule="evenodd">
        <g id="我的" transform="translate(-15.000000, -228.000000)" fill-rule="nonzero">
            <g id="内容" transform="translate(0.000000, 64.000000)">
                <g id="1" transform="translate(0.000000, 149.000000)">
                    <g id="icon-wddc" transform="translate(15.000000, 15.000000)">
                        <g id="登记" transform="translate(2.000000, 3.000000)">
                            <path d="M2.20538224,18.2480259 C1.8209927,18.2480259 1.50932833,17.9364146 1.50932833,17.5520251 L1.50932833,2.42880751 C1.50805421,2.04441692 1.81858566,1.73173452 2.20297517,1.73040147 C2.20457793,1.73040147 2.20618072,1.73040147 2.20778347,1.73040147 L17.4861919,1.76880567 C17.8326384,1.77395874 18.1122387,2.05355991 18.1173926,2.4000064 L18.1173926,17.513638 C18.1173926,17.935147 17.7756969,18.2768427 17.3541917,18.2768427 L2.20538224,18.2480259 Z M18.0094006,19.5560274 C18.7893969,19.5494394 19.4182023,18.9152501 19.4182023,18.1352258 L19.4182023,1.92000692 C19.4155638,1.10539573 18.7544398,0.446405117 17.9398123,0.446405117 L1.68457465,0.446405117 C0.874634714,0.452975312 0.220776922,1.11004339 0.218172975,1.92000683 L0.218172975,18.0800303 C0.220811408,18.8946414 0.881935466,19.5536297 1.69656298,19.553632 L18.0094006,19.5560274 Z" id="形状" fill="#0A0A0A"></path>
                            <path d="M4.14218918,12.1392094 L4.14218918,12.1392094 C3.80875286,12.1390986 3.50913688,11.9355495 3.3861883,11.6256088 L3.36218828,11.5752088 C3.36218828,11.5752088 3.14138802,10.6944078 3.4701884,10.3224073 L3.47018847,10.3224073 C3.6322503,10.1467172 3.8190045,9.99553343 4.02458911,9.87360673 C4.49018966,9.61920643 4.95339019,9.36240613 5.42139074,9.10080583 L5.58699093,9.00960572 L5.58699098,9.00960578 C5.21185929,8.54290836 4.96825432,7.98444365 4.88139016,7.3920039 L4.88139013,7.39200377 C4.84401876,7.1933958 4.82553639,6.99169549 4.82619007,6.78960307 L4.82619007,6.52800276 L4.82619007,5.69280179 L4.82619002,5.69280074 C4.80632767,5.27939792 4.94544461,4.87407166 5.21499047,4.55999942 L5.21499047,4.55999942 C5.7140809,3.92403852 6.47309584,3.54673418 7.28139288,3.53279822 L7.28139293,3.53279822 C8.07944073,3.55026849 8.82673457,3.92788462 9.3141953,4.55999942 L9.31419531,4.55999944 C9.58246828,4.87224121 9.72303251,5.27422058 9.70779577,5.68560075 L9.70779577,6.27120143 C9.70779577,6.54960175 9.70779577,6.83760209 9.69339575,7.12320242 L9.69339581,7.12320015 C9.67637135,7.80053062 9.44345333,8.45471654 9.02859738,8.99040232 L8.99979735,9.02640236 L9.7341982,9.44400285 L9.85899835,9.51600293 C10.1277987,9.66720311 10.396599,9.82080329 10.6653993,9.96720346 C11.4046001,10.3704039 11.1765999,11.330405 11.1693999,11.4072051 L11.1693999,11.4072029 C11.1630334,11.8193799 10.8237362,12.1483537 10.4115615,12.1419881 C10.4065739,12.1419111 10.4015873,12.141784 10.3966023,12.141607 L4.14218092,12.141607 L4.14218918,12.1392094 Z M9.9310006,11.0400082 L9.93100062,11.0400082 C9.98136013,11.0371505 10.0318413,11.0371505 10.0822008,11.0400082 L10.1038008,11.0400082 L10.1038008,11.0400083 C10.099329,10.9840976 10.099329,10.9279188 10.1038008,10.8720081 C9.52540014,10.5480077 8.85339935,10.1712073 8.19819859,9.79200684 L8.19819863,9.79200687 C7.95848898,9.65909054 7.79762786,9.41869159 7.76619813,9.14640612 L7.76619811,9.14640592 C7.73830464,8.86712434 7.84742766,8.59163262 8.05899845,8.40720506 L8.05899846,8.40720505 C8.15364294,8.3207644 8.23457108,8.22041382 8.29899874,8.10960471 L8.29899882,8.10960456 C8.47503363,7.80842531 8.58391712,7.4727671 8.61819919,7.12560342 L8.61819921,7.12560315 C8.63503321,6.83064187 8.63503314,6.5349634 8.61819899,6.24000212 L8.61819899,5.67600146 L8.61819902,5.67600103 C8.62692218,5.51319998 8.57083482,5.35356628 8.4621986,5.23200051 L8.46219862,5.23200054 C8.16659281,4.84665009 7.70704853,4.6226553 7.22139718,4.62719984 L7.22139708,4.62719985 C6.71894103,4.66524669 6.26125065,4.93031739 5.97819564,5.34720068 L5.97819563,5.34720069 C5.94167598,5.39184684 5.91618767,5.44446807 5.90379554,5.50080087 L5.90379554,6.01680147 L5.90379551,6.01680203 C5.88047595,6.41727202 5.89493983,6.81904515 5.94699533,7.21680108 L5.94699532,7.216801 C5.99066084,7.66408511 6.18832451,8.08231607 6.50619597,8.40000472 L6.50619598,8.40000473 C6.87420969,8.69746445 6.93140663,9.23693773 6.63394738,9.60495144 C6.55339213,9.7046139 6.45150709,9.78493736 6.33579625,9.84000641 L5.85579569,10.1112067 C5.46939524,10.332007 5.07099478,10.5600072 4.6557943,10.7616075 C4.46859408,10.8528076 4.41579402,10.9224077 4.41579402,11.0472078 L9.93099575,11.0472078 L9.9310006,11.0400082 Z" id="形状" fill="#231815"></path>
                            <path d="M13.8190051,5.40961567 L15.9094076,5.40961567 C16.3286088,5.40961567 16.5382083,5.61921584 16.5382083,6.0384164 L16.5382083,6.06481643 C16.5382083,6.4840177 16.3286081,6.69361716 15.9094076,6.69361716 L13.8190051,6.69361716 C13.3998039,6.69361716 13.1902044,6.484017 13.1902044,6.06481643 L13.1902044,6.0384164 C13.1902044,5.61921513 13.3998046,5.40961567 13.8190051,5.40961567 Z" id="路径" fill="#000000"></path>
                            <path d="M3.9189936,14.7528219 L15.3813976,14.7528219 C15.8005988,14.7528219 16.0101983,14.962422 16.0101983,15.3816226 L16.0101983,15.4080226 C16.0101983,15.8272239 15.8005981,16.0368233 15.3813976,16.0368233 L3.9189936,16.0368233 C3.49979234,16.0368233 3.29019287,15.8272232 3.29019287,15.4080226 L3.29019287,15.3816226 C3.29019287,14.9624213 3.49979304,14.7528219 3.9189936,14.7528219 Z" id="路径" fill="#000000"></path>
                            <path d="M13.8190051,9.11281529 L15.9094076,9.11281529 C16.3286088,9.11281529 16.5382083,9.32241546 16.5382083,9.74161602 L16.5382083,9.76801605 C16.5382083,10.1872173 16.3286081,10.3968168 15.9094076,10.3968168 L13.8190051,10.3968168 C13.3998039,10.3968168 13.1902044,10.1872166 13.1902044,9.76801605 L13.1902044,9.74161602 C13.1902044,9.32241475 13.3998046,9.11281529 13.8190051,9.11281529 Z" id="路径" fill="#000000"></path>
                        </g>
                    </g>
                </g>
            </g>
        </g>
    </g>
</svg>